ModelForces
version=1
nRows=8
nColumns=67
inDegrees=no

This file contains the forces exerted on a model during a simulation.

A force is a generalized force, meaning that it can be either a force (N) or a torque (Nm).

Units are S.I. units (second, meters, Newtons, ...)
Angles are in degrees.

endheader
time	hamstrings_r	bifemsh_r	glut_max_r	iliopsoas_r	rect_fem_r	vasti_r	gastroc_r	soleus_r	tib_ant_r	hamstrings_l	bifemsh_l	glut_max_l	iliopsoas_l	rect_fem_l	vasti_l	gastroc_l	soleus_l	tib_ant_l	foot_r.ground.force.X	foot_r.ground.force.Y	foot_r.ground.force.Z	foot_r.ground.torque.X	foot_r.ground.torque.Y	foot_r.ground.torque.Z	foot_r.calcn_r.force.X	foot_r.calcn_r.force.Y	foot_r.calcn_r.force.Z	foot_r.calcn_r.torque.X	foot_r.calcn_r.torque.Y	foot_r.calcn_r.torque.Z	foot_r.toes_r.force.X	foot_r.toes_r.force.Y	foot_r.toes_r.force.Z	foot_r.toes_r.torque.X	foot_r.toes_r.torque.Y	foot_r.toes_r.torque.Z	foot_l.ground.force.X	foot_l.ground.force.Y	foot_l.ground.force.Z	foot_l.ground.torque.X	foot_l.ground.torque.Y	foot_l.ground.torque.Z	foot_l.calcn_l.force.X	foot_l.calcn_l.force.Y	foot_l.calcn_l.force.Z	foot_l.calcn_l.torque.X	foot_l.calcn_l.torque.Y	foot_l.calcn_l.torque.Z	foot_l.toes_l.force.X	foot_l.toes_l.force.Y	foot_l.toes_l.force.Z	foot_l.toes_l.torque.X	foot_l.toes_l.torque.Y	foot_l.toes_l.torque.Z	HipLimit_r	PotentialEnergy	HipLimit_l	PotentialEnergy	KneeLimit_r	PotentialEnergy	KneeLimit_l	PotentialEnergy	AnkleLimit_r	PotentialEnergy	AnkleLimit_l	PotentialEnergy
      0.11407550	    115.64908334	    278.77451600	   1529.53846303	    132.40057348	     23.02851389	   2123.17758482	    265.18621593	    508.64750041	     36.39637890	   1518.14394061	    429.15408873	   2025.24797811	    887.72245876	     23.01708652	   3365.57290053	   1750.92455938	     95.23805899	     45.84870453	    -64.70033411	    -43.37222072	      0.00000000	      3.96508842	     -5.91490454	      6.59605736	     64.70033411	     43.37222072	      0.00000000	      0.00000000	      0.00000000	      0.48043435	      0.00000000	      0.00000000	      0.00000000	      0.00000000	      0.00000000	      0.00000000	   -436.82852238	   -572.26790984	      0.00000000	    -52.93478166	     40.40663832	     -2.14331642	      0.00000000	      0.00000000	      0.00000000	      0.00000000	      0.00000000	      0.00000000	    436.82852238	    572.26790984	      0.00000000	      0.00000000	      0.00000000	     17.30688475	      0.00000000	      0.00000000	      0.00000000	      0.00000000	   -146.15698286	      3.59531510	   -278.79786583	     20.11928709	      0.00000000	      0.00000000	      0.00000000	      0.00000000
      0.11424015	    122.47471699	    284.30474666	   1518.26042353	    132.58181399	     22.87253553	   2219.86530307	    261.66675483	    509.49900669	     36.70219474	   1519.71642515	    430.93032782	   2024.72348090	    917.41904231	     22.78470404	   3329.33054972	   1742.66311416	     93.01905475	     45.66094711	    -60.25726504	    -40.08604879	      0.00000000	      3.66466658	     -5.50871917	      6.10169698	     60.25726504	     40.08604879	      0.00000000	      0.00000000	      0.00000000	      0.44971965	      0.00000000	      0.00000000	      0.00000000	      0.00000000	      0.00000000	      0.00000000	   -348.95839138	   -568.67086243	      0.00000000	    -52.60205477	     32.27865120	     -1.86528595	      0.00000000	      0.00000000	      0.00000000	      0.00000000	      0.00000000	      0.00000000	    348.95839138	    568.67086243	      0.00000000	      0.00000000	      0.00000000	     17.87124518	      0.00000000	      0.00000000	      0.00000000	      0.00000000	   -147.11830856	      3.65027644	   -278.69396860	     20.22593415	      0.00000000	      0.00000000	      0.00000000	      0.00000000
      0.11440480	    129.46886086	    289.59940444	   1506.41026432	    132.76408563	     22.72338088	   2313.03903810	    258.13009904	    510.01559775	     37.02538895	   1521.27281568	    432.65174443	   2024.55283382	    945.89610247	     22.57124511	   3296.38732067	   1734.94444729	     91.06630519	     45.47991278	    -55.84432258	    -36.86997685	      0.00000000	      3.37065328	     -5.10528797	      5.61722790	     55.84432258	     36.86997685	      0.00000000	      0.00000000	      0.00000000	      0.41914135	      0.00000000	      0.00000000	      0.00000000	      0.00000000	      0.00000000	      0.00000000	   -294.92133254	   -565.76617700	      0.00000000	    -52.33337137	     27.28022326	     -1.69537702	      0.00000000	      0.00000000	      0.00000000	      0.00000000	      0.00000000	      0.00000000	    294.92133254	    565.76617700	      0.00000000	      0.00000000	      0.00000000	     18.19761383	      0.00000000	      0.00000000	      0.00000000	      0.00000000	   -148.08361954	      3.70541105	   -278.40080828	     20.33084310	      0.00000000	      0.00000000	      0.00000000	      0.00000000
      0.11456944	    136.63066282	    294.67483608	   1494.07569439	    132.94735198	     22.58049886	   2402.62032727	    254.58890515	    510.19704469	     37.36320395	   1522.81081948	    434.31786855	   2024.72264919	    973.24608176	     22.37607511	   3266.93223670	   1727.72347980	     89.34452828	     45.30608014	    -51.47396941	    -33.73047119	      0.00000000	      3.08363968	     -4.70575028	      5.14364017	     51.47396941	     33.73047119	      0.00000000	      0.00000000	      0.00000000	      0.38873780	      0.00000000	      0.00000000	      0.00000000	      0.00000000	      0.00000000	      0.00000000	   -261.46019585	   -563.04655982	      0.00000000	    -52.08180678	     24.18506812	     -1.59143571	      0.00000000	      0.00000000	      0.00000000	      0.00000000	      0.00000000	      0.00000000	    261.46019585	    563.04655982	      0.00000000	      0.00000000	      0.00000000	     18.37025323	      0.00000000	      0.00000000	      0.00000000	      0.00000000	   -149.05181597	      3.76073285	   -277.97953299	     20.43359676	      0.00000000	      0.00000000	      0.00000000	      0.00000000
      0.11477538	    145.82267164	    300.73661755	   1478.08480775	    133.17790144	     22.40990291	   2509.55512538	    250.17794916	    509.95324309	     37.80281732	   1524.70719051	    436.32443292	   2025.38619693	   1005.99454267	     22.15678795	   3235.08271582	   1719.34726700	     87.43013421	     45.09738025	    -46.08611955	    -29.92061857	      0.00000000	      2.73534295	     -4.21319305	      4.56801948	     46.08611955	     29.92061857	      0.00000000	      0.00000000	      0.00000000	      0.35101523	      0.00000000	      0.00000000	      0.00000000	      0.00000000	      0.00000000	      0.00000000	   -236.86353419	   -559.48651615	      0.00000000	    -51.75250274	     21.90987691	     -1.51655132	      0.00000000	      0.00000000	      0.00000000	      0.00000000	      0.00000000	      0.00000000	    236.86353419	    559.48651615	      0.00000000	      0.00000000	      0.00000000	     18.44541905	      0.00000000	      0.00000000	      0.00000000	      0.00000000	   -150.26497396	      3.83020903	   -277.33063792	     20.55866762	      0.00000000	      0.00000000	      0.00000000	      0.00000000
      0.11498132	    155.27235667	    306.50363069	   1461.59309772	    133.40984746	     22.24761247	   2610.81543428	    245.82571587	    509.18904736	     38.25796197	   1526.57292949	    438.24643079	   2026.51239863	   1037.25156724	     21.96404256	   3208.71891819	   1711.66199860	     85.72205512	     44.89595537	    -40.80770578	    -26.25142323	      0.00000000	      2.39990511	     -3.73064046	      4.01264522	     40.80770578	     26.25142323	      0.00000000	      0.00000000	      0.00000000	      0.31371237	      0.00000000	      0.00000000	      0.00000000	      0.00000000	      0.00000000	      0.00000000	   -223.41713489	   -555.51411681	      0.00000000	    -51.38505580	     20.66608498	     -1.47676666	      0.00000000	      0.00000000	      0.00000000	      0.00000000	      0.00000000	      0.00000000	    223.41713489	    555.51411681	      0.00000000	      0.00000000	      0.00000000	     18.41793476	      0.00000000	      0.00000000	      0.00000000	      0.00000000	   -151.47812194	      3.90001486	   -276.59039452	     20.67958078	      0.00000000	      0.00000000	      0.00000000	      0.00000000
      0.11518726	    164.97620410	    311.99824060	   1444.71778865	    133.64310637	     22.09299401	   2706.47304750	    241.58585289	    507.90918496	     38.72559289	   1528.40860598	    440.08597217	   2028.05711677	   1067.13928581	     21.79676749	   3187.66265382	   1704.63649623	     84.19040009	     44.69943794	    -35.66325634	    -22.73443335	      0.00000000	      2.07838190	     -3.26033490	      3.47931641	     35.66325634	     22.73443335	      0.00000000	      0.00000000	      0.00000000	      0.27693313	      0.00000000	      0.00000000	      0.00000000	      0.00000000	      0.00000000	      0.00000000	   -216.29132707	   -551.05017682	      0.00000000	    -50.97214136	     20.00694775	     -1.45622552	      0.00000000	      0.00000000	      0.00000000	      0.00000000	      0.00000000	      0.00000000	    216.29132707	    551.05017682	      0.00000000	      0.00000000	      0.00000000	     18.32250572	      0.00000000	      0.00000000	      0.00000000	      0.00000000	   -152.68860678	      3.97016326	   -275.78941336	     20.79611819	      0.00000000	      0.00000000	      0.00000000	      0.00000000
      0.11545492	    177.96170064	    318.76501162	   1422.37629521	    133.94810478	     21.90266103	   2822.64622283	    236.35204391	    505.48575644	     39.34801786	   1530.75126417	    442.35775539	   2030.61682138	   1104.11231633	     21.61574837	   3167.81339076	   1696.44672442	     82.43533060	     44.44863291	    -29.21963187	    -18.41054636	      0.00000000	      1.68309215	     -2.67125875	      2.82218069	     29.21963187	     18.41054636	      0.00000000	      0.00000000	      0.00000000	      0.23012782	      0.00000000	      0.00000000	      0.00000000	      0.00000000	      0.00000000	      0.00000000	   -212.27466827	   -544.55581231	      0.00000000	    -50.37141264	     19.63540682	     -1.44448354	      0.00000000	      0.00000000	      0.00000000	      0.00000000	      0.00000000	      0.00000000	    212.27466827	    544.55581231	      0.00000000	      0.00000000	      0.00000000	     18.13120933	      0.00000000	      0.00000000	      0.00000000	      0.00000000	   -154.25366403	      4.06186245	   -274.69037761	     20.94084509	      0.00000000	      0.00000000	      0.00000000	      0.00000000
